<svg xmlns="http://www.w3.org/2000/svg" width="19" height="20" viewBox="0 0 19 20" fill="none">
  <path d="M15.0417 3.33333H3.95837C3.32848 3.33333 2.72439 3.59673 2.279 4.06557C1.8336 4.53441 1.58337 5.17029 1.58337 5.83333V14.1667C1.58337 14.8297 1.8336 15.4656 2.279 15.9344C2.72439 16.4033 3.32848 16.6667 3.95837 16.6667H15.0417C15.6716 16.6667 16.2757 16.4033 16.7211 15.9344C17.1665 15.4656 17.4167 14.8297 17.4167 14.1667V5.83333C17.4167 5.17029 17.1665 4.53441 16.7211 4.06557C16.2757 3.59673 15.6716 3.33333 15.0417 3.33333ZM14.5113 5L9.50004 8.95833L4.48879 5H14.5113ZM15.0417 15H3.95837C3.74841 15 3.54705 14.9122 3.39858 14.7559C3.25011 14.5996 3.16671 14.3877 3.16671 14.1667V6.04167L9.02504 10.6667C9.16207 10.7749 9.32875 10.8333 9.50004 10.8333C9.67133 10.8333 9.83801 10.7749 9.97504 10.6667L15.8334 6.04167V14.1667C15.8334 14.3877 15.75 14.5996 15.6015 14.7559C15.453 14.9122 15.2517 15 15.0417 15Z" fill="currentColor"/>
</svg>