<svg xmlns="http://www.w3.org/2000/svg" width="20" height="20" viewBox="0 0 20 20" fill="none">
  <path d="M6.49996 1.66667H13.5C16.1666 1.66667 18.3333 3.83333 18.3333 6.5V13.5C18.3333 14.7819 17.8241 16.0113 16.9176 16.9177C16.0112 17.8241 14.7818 18.3333 13.5 18.3333H6.49996C3.83329 18.3333 1.66663 16.1667 1.66663 13.5V6.5C1.66663 5.21812 2.17585 3.98874 3.08228 3.08232C3.9887 2.17589 5.21808 1.66667 6.49996 1.66667ZM6.33329 3.33333C5.53764 3.33333 4.77458 3.6494 4.21197 4.21201C3.64936 4.77462 3.33329 5.53768 3.33329 6.33333V13.6667C3.33329 15.325 4.67496 16.6667 6.33329 16.6667H13.6666C14.4623 16.6667 15.2253 16.3506 15.7879 15.788C16.3506 15.2254 16.6666 14.4623 16.6666 13.6667V6.33333C16.6666 4.675 15.325 3.33333 13.6666 3.33333H6.33329ZM14.375 4.58333C14.6512 4.58333 14.9162 4.69308 15.1115 4.88843C15.3069 5.08378 15.4166 5.34873 15.4166 5.625C15.4166 5.90127 15.3069 6.16622 15.1115 6.36157C14.9162 6.55692 14.6512 6.66667 14.375 6.66667C14.0987 6.66667 13.8337 6.55692 13.6384 6.36157C13.443 6.16622 13.3333 5.90127 13.3333 5.625C13.3333 5.34873 13.443 5.08378 13.6384 4.88843C13.8337 4.69308 14.0987 4.58333 14.375 4.58333ZM9.99996 5.83333C11.105 5.83333 12.1648 6.27232 12.9462 7.05372C13.7276 7.83512 14.1666 8.89493 14.1666 10C14.1666 11.1051 13.7276 12.1649 12.9462 12.9463C12.1648 13.7277 11.105 14.1667 9.99996 14.1667C8.89489 14.1667 7.83508 13.7277 7.05368 12.9463C6.27228 12.1649 5.83329 11.1051 5.83329 10C5.83329 8.89493 6.27228 7.83512 7.05368 7.05372C7.83508 6.27232 8.89489 5.83333 9.99996 5.83333ZM9.99996 7.5C9.33692 7.5 8.70103 7.76339 8.23219 8.23223C7.76335 8.70107 7.49996 9.33696 7.49996 10C7.49996 10.663 7.76335 11.2989 8.23219 11.7678C8.70103 12.2366 9.33692 12.5 9.99996 12.5C10.663 12.5 11.2989 12.2366 11.7677 11.7678C12.2366 11.2989 12.5 10.663 12.5 10C12.5 9.33696 12.2366 8.70107 11.7677 8.23223C11.2989 7.76339 10.663 7.5 9.99996 7.5Z" fill="currentColor"/>
</svg>